<svg id="Layer_1" data-name="Layer 1" xmlns="http://www.w3.org/2000/svg" viewBox="0 0 1024 1024"><defs><style>.cls-1{fill:#ef8130;}.cls-2{fill:#e26b1b;}.cls-3{fill:#f29a57;}.cls-16,.cls-4{fill:none;stroke-miterlimit:10;}.cls-4{stroke:#1d1d1b;stroke-width:1.72px;}.cls-5{fill:#ed863a;}.cls-13,.cls-6{fill:#3c3c3b;}.cls-7{fill:#232323;}.cls-8{fill:#fff;}.cls-9{fill:#c6601a;}.cls-10{fill:#f9e3d2;}.cls-11{fill:#af886d;}.cls-12{fill:#bd1622;}.cls-13{font-size:20.95px;font-family:DKLemonYellowSun, DK Lemon Yellow Sun;}.cls-14{fill:#fcea0d;}.cls-15{fill:#ffd400;}.cls-16{stroke:#fff;stroke-width:1.39px;}.cls-17{fill:#1d6464;}.cls-18{fill:#4ba5ae;}.cls-19{fill:#44969b;}.cls-20{fill:#282828;}</style></defs><path class="cls-1" d="M447.12,929.86c-6.4,3-53.29,24-98.5.53-37.38-19.43-55.86-60.25-56.89-94.2-2-64.18,60.57-73.85,97.93-164.15,3.19-7.71,51.94-129.34-3.77-180.42-27.13-24.87-75-29.34-111.89-9.84-42.91,22.69-60,72.07-54.09,108.19,5.58,34.3,28.5,36.11,38.24,71.81,11.77,43.15-15,65.19-28.91,125.91-3.81,16.58-27,114.41,17.72,171.62,56.29,72,190.35,41.71,196.13,40.33"/><path class="cls-2" d="M404.63,519.31a146.89,146.89,0,0,0-48.12-2.55c-46.21,5.26-77,31.43-88.86,42.71,6.62-4.2,46.08-28.35,93.31-14.67,26.61,7.7,43.47,23.88,51.12,32.32a160.68,160.68,0,0,0-.75-30.69,123.07,123.07,0,0,0-2.7-14.56A112.93,112.93,0,0,0,404.63,519.31Z"/><path class="cls-2" d="M403.37,629.77a92.07,92.07,0,0,0-20-9.57c-30.69-10.33-58.68-1.53-70.4,3,5.81-1.42,38.53-8.82,65.21,11.21A68,68,0,0,1,396,654.64q2.34-7,4.54-14.62,1.51-5.22,2.8-10.25"/><path class="cls-2" d="M370.32,709.49c-3.05,4.81-6.45,9.8-10.22,14.9q-3.51,4.74-7,9a30.29,30.29,0,0,0-4.87-15c-7.88-11.86-24.62-17.14-42.5-13.78a90.67,90.67,0,0,1,64.59,4.86Z"/><path class="cls-2" d="M311,781.14a45.42,45.42,0,0,0-13.57-7.56c-13.63-4.75-25.75-1.54-30.47,0,2-.22,15.21-1.45,25.2,8.2A30.31,30.31,0,0,1,300.53,797c1.55-2.86,3.38-5.92,5.52-9.08C307.7,785.42,309.37,783.18,311,781.14Z"/><path class="cls-2" d="M291.73,836.19a34.36,34.36,0,0,0-41.38,6.59,31.93,31.93,0,0,1,43.42,11.16c-.21-2.31-.45-4.64-.72-7C292.65,843.28,292.2,839.7,291.73,836.19Z"/><path class="cls-2" d="M307.15,889.81a36.08,36.08,0,0,0-22.65,2.13c-15.33,6.93-19.53,22.49-20.07,24.61a44,44,0,0,1,53.69-10.92c-1.61-1.93-3.26-4-4.9-6.34A109.43,109.43,0,0,1,307.15,889.81Z"/><path class="cls-2" d="M348.62,930.39a31.59,31.59,0,0,0-16.34,12.72c-6.28,10.08-5.88,23.49.8,34.73a36.56,36.56,0,0,1,32.85-40.49c-2-.63-4.08-1.33-6.21-2.13A114.9,114.9,0,0,1,348.62,930.39Z"/><path class="cls-3" d="M683.51,770.45c-10,7.11-34,20.87-65.94,25.52a154.62,154.62,0,0,1-22.2,1.61,199,199,0,0,1-72.75-38.24c-94.79-79-76.62-220.47-74.47-235.42q19.25-98.86,38.45-197.7a188.46,188.46,0,0,1,70.13,62,142.06,142.06,0,0,1,70.79,0,188.91,188.91,0,0,1,70.16-62Q718,428.11,738.28,530a452,452,0,0,1-2.74,115.33C727.82,695.3,720.47,744.28,683.51,770.45Z"/><path class="cls-2" d="M439.83,601.18a335.38,335.38,0,0,1-7.48,60.63,329.44,329.44,0,0,1-11,39.15c-11.11,31.86-24.06,53.27-30.15,65.15-16.39,32-19.54,92.46,45.38,218.21a31.28,31.28,0,0,0-22.45,32.75l282.87.45-8.32,0,83.63-.47a31.29,31.29,0,0,0-22.44-32.75c64.91-125.75,61.77-186.23,45.38-218.21-20.31-39.63-30-59.15-41.18-104.3A223.9,223.9,0,0,1,747.19,614c-.36-8.54.17-11.49-.21-11.57-1.33-.28-7.87,35.86-18.25,68.14-11.11,34.57-20.35,63.3-43.25,86.72-9.6,9.82-37,34.42-90.11,40.3a140.07,140.07,0,0,1-37.47-9.11C463.5,751,442.62,620.33,439.83,601.18Z"/><path class="cls-4" d="M525.1,978.68l-.13-.21"/><path class="cls-1" d="M587.5,977.47v40H493.79v0a40.08,40.08,0,0,1,40.07-40Z"/><path class="cls-1" d="M697,1017.47v0H603.26v-40H656.9a38,38,0,0,1,5.66.42A40,40,0,0,1,697,1017.47Z"/><path class="cls-1" d="M595.37,797.58Q591.42,897,587.5,996.41V977.47H533.86a40,40,0,0,0-8.89,1,236.2,236.2,0,0,1-35-143.88l-15,26.3c-2.76-7.52-7-22.82-2.52-40.55a64.38,64.38,0,0,1,5.48-14.21q-5.19,3.18-10.38,6.32a76.79,76.79,0,0,1-.55-24.34v-.05a126,126,0,0,1,6.92-27.38q-5.07,7.08-10.12,14.19a132.83,132.83,0,0,1,2.8-52.28c-3.59,6.14-7.21,12.25-10.83,18.39a129.56,129.56,0,0,1-3.51-25.44,131.12,131.12,0,0,1,6.18-45q-7.11,10.79-14.24,21.58c-1.19-9-2.58-21-3.54-35.32-4.6-68.6,5.44-124,6.55-123.91.49,0-.65,10.91-.43,37.28.19,23,1.19,31.5,2,36.94A178.8,178.8,0,0,0,455.5,636l13.23-7.2a33.7,33.7,0,0,0-3,8.08,36.3,36.3,0,0,0,2.22,22.19l8.13-9.57A63.15,63.15,0,0,0,484.35,699l8.7-12.48a59.22,59.22,0,0,0,3.38,22.52,57.91,57.91,0,0,0,6.18,12.34l14.06-3.77a51,51,0,0,0,7.54,34.64l12.35-9.6a34.32,34.32,0,0,0,2.4,20.92,33.2,33.2,0,0,0,7.89,10.63l10.29-8.91a66.37,66.37,0,0,0,38.23,32.28,66.91,66.91,0,0,0,38-32.28l10.29,8.91A33.32,33.32,0,0,0,654,742.66l12.34,9.6a51,51,0,0,0,7.55-34.64l14.06,3.77a58.74,58.74,0,0,0,9.56-34.86l8.7,12.48a63.13,63.13,0,0,0,8.28-49.51l8.14,9.57a34.78,34.78,0,0,0-.8-30.27L735,636a342.9,342.9,0,0,0,3.8-55.89c-.65-44.43-10.14-90.38-10-90.4h0c.68,2.36,1.31,4.75,1.91,7.16a1.21,1.21,0,0,1,0,.18,506,506,0,0,1,16.71,130.09c0,9.71-.34,19.57-1,29.67-.78,12.22-2,24-3.54,35.32l-14.24-21.58A130.28,130.28,0,0,1,731.41,741c-3.62-6.14-7.24-12.25-10.83-18.39a132.83,132.83,0,0,1,2.8,52.28q-5.07-7.1-10.12-14.19a126,126,0,0,1,6.92,27.38v.05a78.06,78.06,0,0,1-.52,24.34q-5.19-3.15-10.39-6.32a63.91,63.91,0,0,1,5.46,14.21c4.51,17.73.23,33-2.52,40.55l-15-26.3a236.48,236.48,0,0,1-34.62,143.3,38,38,0,0,0-5.66-.42H603.26v18.94Z"/><path class="cls-5" d="M735,636l-13.22-7.2a34.78,34.78,0,0,1,.8,30.27,36.29,36.29,0,0,0-6.56-14.58c-3.53-4.63-7.51-7-13-10.73s-10.17-5.66-22.1-13.14c-29.95-18.83-55.55-60.14-63.42-91.32-1.39-5.43-4.14-18.2-14.14-23.37a22.35,22.35,0,0,0-19.88,0c-9.88,5.11-12.74,17.62-14,22.58-7.73,30-32.76,72.84-63.55,92.11-7.42,4.65-14.86,9.29-22.57,13.43-4.23,2.26-7.57,3.92-10.49,7.64-4.55,5.81-5.06,12.86-4.9,17.38a35.13,35.13,0,0,1,.8-30.27L455.5,636a263.33,263.33,0,0,1-7.56-35.37c-4.33-30.3-2.42-55.09.23-76.73,4.92-40.33,17.32-110.11,38.45-197.71a188.36,188.36,0,0,1,70.13,62,142.06,142.06,0,0,1,70.79,0,188.6,188.6,0,0,1,70.16-62C724.32,419.28,736,492.83,738.3,530a628.08,628.08,0,0,1,.08,72.59C737.46,616.22,736.14,627.68,735,636Z"/><path class="cls-6" d="M611.79,587.08c-4.36,0-10.16-1.07-14.56-5.81a19.9,19.9,0,0,1-5-12.11V547H595v22.12a17.38,17.38,0,0,0,4.34,10.5c6.49,7,16.73,4.6,17.88,4.31a20.72,20.72,0,0,0,10.41-6.6l2.14,1.62a23.37,23.37,0,0,1-11.82,7.46A25.5,25.5,0,0,1,611.79,587.08Z"/><path class="cls-6" d="M575.14,587.08a25.59,25.59,0,0,1-6.13-.71,23.42,23.42,0,0,1-11.82-7.46l2.15-1.62a20.61,20.61,0,0,0,10.41,6.6c1.14.29,11.38,2.67,17.88-4.31A17.35,17.35,0,0,0,592,569V547h2.75v22.12a19.85,19.85,0,0,1-5,12.19C585.3,586,579.5,587.08,575.14,587.08Z"/><path class="cls-7" d="M607.91,538.16,596.26,549.8a3.94,3.94,0,0,1-5.59,0L579,538.16a4,4,0,0,1,2.79-6.75h23.29A4,4,0,0,1,607.91,538.16Z"/><circle class="cls-8" cx="649.89" cy="493.88" r="29.83"/><circle class="cls-7" cx="649.89" cy="493.88" r="19.61"/><circle class="cls-8" cx="638.03" cy="482.25" r="4.67"/><circle class="cls-8" cx="533.59" cy="493.88" r="29.83"/><circle class="cls-7" cx="533.59" cy="493.88" r="19.61"/><circle class="cls-8" cx="521.73" cy="482.25" r="4.67"/><path class="cls-2" d="M479,440.14l17.76-75.07a70.83,70.83,0,0,1,36.72,31.43c-4,1.84-8.18,4-12.4,6.43A146.83,146.83,0,0,0,479,440.14Z"/><path class="cls-2" d="M704.37,440.14l-17.76-75.07a70.83,70.83,0,0,0-36.72,31.43c4,1.84,8.18,4,12.4,6.43A146.83,146.83,0,0,1,704.37,440.14Z"/><path class="cls-2" d="M556.73,388.24A58.08,58.08,0,0,0,546,412.65c-3.66,20,4.6,35.7,7.31,40.39a108.34,108.34,0,0,1,23.39-68.44c-3.12.32-6.48.78-10,1.43S559.77,387.44,556.73,388.24Z"/><path class="cls-2" d="M627.64,388.24a58.2,58.2,0,0,1,10.79,24.41c3.66,20-4.61,35.7-7.32,40.39a108.34,108.34,0,0,0-23.39-68.44c3.39.36,7,.88,10.86,1.61C621.79,386.82,624.81,387.51,627.64,388.24Z"/><path class="cls-2" d="M603.6,384.22a291.62,291.62,0,0,1-12.15,80.35,226.06,226.06,0,0,1-10.94-80.34c3-.24,6.22-.41,9.59-.45,4.83-.07,9.34.11,13.5.44"/><path class="cls-9" d="M660,553.12a1.22,1.22,0,0,1-.35-2.39l110.14-33a1.22,1.22,0,1,1,.7,2.33l-110.14,33A1.07,1.07,0,0,1,660,553.12Z"/><path class="cls-9" d="M770.16,598.15a1.48,1.48,0,0,1-.35,0l-110.14-33a1.22,1.22,0,0,1,.7-2.33l110.14,33a1.22,1.22,0,0,1-.35,2.38Z"/><path class="cls-9" d="M776.67,559.6H660a1.22,1.22,0,0,1,0-2.44H776.67a1.22,1.22,0,0,1,0,2.44Z"/><path class="cls-9" d="M529.42,553.12a1.12,1.12,0,0,1-.35-.06l-110.14-33a1.22,1.22,0,0,1,.7-2.33l110.14,33a1.22,1.22,0,0,1-.35,2.39Z"/><path class="cls-9" d="M419.28,598.15a1.22,1.22,0,0,1-.35-2.38l110.14-33a1.22,1.22,0,1,1,.7,2.33l-110.14,33A1.41,1.41,0,0,1,419.28,598.15Z"/><path class="cls-9" d="M529.42,559.6H412.78a1.22,1.22,0,1,1,0-2.44H529.42a1.22,1.22,0,0,1,0,2.44Z"/><path class="cls-1" d="M788.51,753a46.31,46.31,0,0,1-12.35,26.72c-12.46,13-28.37,14-31.74,14.07A50.95,50.95,0,0,0,801.07,781a159.21,159.21,0,0,0-5.85-14.93C793,761.27,790.75,756.89,788.51,753Z"/><path class="cls-1" d="M397.26,754.83a46.26,46.26,0,0,0,12.35,26.72c12.46,13,28.37,14,31.73,14.07a50.94,50.94,0,0,1-56.64-12.71,107.23,107.23,0,0,1,12.56-28.08Z"/><path class="cls-1" d="M805.05,819.77a59.13,59.13,0,0,1-15.13,5.29,61.68,61.68,0,0,1-33.11-2.65,74.78,74.78,0,0,0,45.68,20.94q.84-5.25,1.48-11c.49-4.38.84-8.59,1.08-12.62"/><path class="cls-1" d="M381.17,819.77a59.13,59.13,0,0,0,15.13,5.29,61.73,61.73,0,0,0,33.12-2.65,74.83,74.83,0,0,1-45.69,20.94c-.55-3.5-1.06-7.16-1.48-11-.49-4.38-.84-8.59-1.08-12.62"/><path class="cls-10" d="M424.87,762.33c46-6.72,94.56-15.28,145.35-26.17,45.49-9.76,88.56-20.48,129.1-31.73A632.54,632.54,0,0,0,747.51,907c-44.13,15.38-91.67,30.31-142.46,44.08-44.54,12.07-87.32,22.1-128,30.44a733.36,733.36,0,0,0-23.81-135.95A730.51,730.51,0,0,0,424.87,762.33Z"/><circle class="cls-11" cx="688.31" cy="736.41" r="6.65"/><path class="cls-11" d="M460.41,786.84a6.65,6.65,0,1,1-6.64-6.65A6.64,6.64,0,0,1,460.41,786.84Z"/><path class="cls-12" d="M756.66,653.77a89.18,89.18,0,0,1-1.47,9.73,94.15,94.15,0,0,1-20.14,41.07,118.43,118.43,0,0,1-17.16,16.87c-3.56,2.88-7,5.38-10.15,7.47-1.68,1.11-3.28,2.1-4.74,3v0a98.37,98.37,0,0,1-10.89,5.82,3.75,3.75,0,0,1-1.6.34,3.93,3.93,0,0,1-1.57-7.52,113.59,113.59,0,0,0,18-10.84c1.31-.94,2.67-2,4-3,0,0,0,0,0-.05a116,116,0,0,0,12.22-10.94,101.79,101.79,0,0,0,10.89-13.24,85.62,85.62,0,0,0,11.12-22.24A80.63,80.63,0,0,0,748.82,653a83.47,83.47,0,0,0-1.32-24.44c.06-1.37.06-2.73.06-4.09,0-2.55,0-5.09-.06-7.61,0,0,0,0,0-.08,0-4.64-.15-9.23-.34-13.8C753.06,615.32,758.62,633.05,756.66,653.77Z"/><path class="cls-12" d="M456.27,788.92a3.85,3.85,0,0,1-2.89,1.28,3.94,3.94,0,0,1-2.65-1c-13.06-11.88-29.66-32-34.67-60.4-.55-3.18-.94-6.38-1.18-9.55-1.91-24.55,5.38-49.36,20.12-71.1-.84,5.14-1.84,10.46-3,15.94-.76,3.57-2,8.87-3.75,15.5a.24.24,0,0,0,0,.14,98.3,98.3,0,0,0-3.28,11.35.18.18,0,0,1,0,.11,92.27,92.27,0,0,0-1,36.24c4.61,26.21,20.06,44.88,32.2,56A3.94,3.94,0,0,1,456.27,788.92Z"/><path class="cls-6" d="M551,793.15c0,.05,0,.1,0,.15-.06,1.12-.05,1.94-1.22,2.32-.64.17-.73.19-1.26-.28l-1.22-2.94c-3-8.17-5.77-16.25-9-24.33a37.66,37.66,0,0,0-2.69-5.49,1.27,1.27,0,0,1-.09-.22c-.27-1.34,2.43-2.08,2.89-1,2.59,5.94,5.56,14.26,8,20.39l1.9,4.92a84.75,84.75,0,0,0-.43-11.05,1.66,1.66,0,0,1,1.26-1.65,1.28,1.28,0,0,1,1.43.19L558.23,786c-1.41-8.2-3.23-22.11-4.17-29.44.26-1.31,2.27-1.86,2.77-.36s.45,4.68.66,6.18c1.18,10,3,19.74,4.59,29.6-.4.66-.13,1-1,1.32l-.33.06c-1.2.24-1.35-.74-2-1.77l-8.36-13.08C551.08,784.94,550.68,788.73,551,793.15Z"/><path class="cls-6" d="M577.36,787.86s0,.1,0,.15c-.06,1.12-.05,1.94-1.22,2.32-.64.17-.73.19-1.26-.28l-1.22-2.94c-3-8.17-5.76-16.25-9-24.33a37.66,37.66,0,0,0-2.69-5.49,1.27,1.27,0,0,1-.09-.22c-.27-1.34,2.43-2.08,2.89-1,2.59,5.94,5.56,14.26,8,20.39l1.9,4.92a84.75,84.75,0,0,0-.43-11,1.66,1.66,0,0,1,1.26-1.65,1.3,1.3,0,0,1,1.44.19l7.71,11.76c-1.41-8.2-3.23-22.11-4.17-29.44.26-1.31,2.28-1.86,2.77-.36s.45,4.68.66,6.18c1.18,10,3,19.74,4.59,29.6-.4.66-.13,1-1,1.32l-.33.06c-1.2.24-1.35-.74-2-1.77l-8.36-13.08C577.45,779.65,577.05,783.44,577.36,787.86Z"/><path class="cls-6" d="M603.73,782.57s0,.1,0,.15c-.06,1.12,0,1.94-1.22,2.32-.64.17-.73.19-1.26-.28L600,781.82c-3-8.17-5.76-16.25-9-24.33a37.66,37.66,0,0,0-2.69-5.49,1.27,1.27,0,0,1-.09-.22c-.27-1.34,2.43-2.08,2.89-1,2.59,5.94,5.56,14.26,8,20.39l1.9,4.92a84.82,84.82,0,0,0-.43-11,1.66,1.66,0,0,1,1.26-1.65,1.3,1.3,0,0,1,1.44.19L611,775.38c-1.41-8.2-3.23-22.11-4.17-29.44.26-1.31,2.28-1.86,2.77-.36s.46,4.68.66,6.18c1.18,10,3,19.74,4.59,29.6-.4.66-.13,1-1,1.32l-.32.06c-1.21.24-1.36-.74-2-1.77L603.1,767.9C603.82,774.36,603.42,778.15,603.73,782.57Z"/><path class="cls-6" d="M510.06,830.32q33.87-5.79,67.37-13.5c20.43-4.73,40.75-9.89,61.15-14.72q18.49-4.38,37-8.62c.72-.17-.83-2.13-1.61-2q-35.31,8.07-70.5,16.67c-17.1,4.17-34.2,8.3-51.43,11.9q-21.74,4.54-43.63,8.27c-.7.12.82,2.08,1.61,2Z"/><path class="cls-6" d="M515.93,854.38q32-9.51,64.77-16.16c10.48-2.11,21-3.94,31.52-6q17.5-3.37,34.76-7.87,17-4.44,33.8-9.89c.5-.17-.35-.91-.49-1a1.93,1.93,0,0,0-1.57-.45,562.83,562.83,0,0,1-65.25,17.1c-20.1,4-40.27,7.44-60.21,12.21q-19.83,4.75-39.39,10.58c-.51.15.35.91.48,1a2,2,0,0,0,1.58.46Z"/><path class="cls-6" d="M520.6,876.07q33.87-5.79,67.37-13.49c20.42-4.73,40.75-9.9,61.15-14.73q18.5-4.38,37-8.62c.23-.05-.77-2.3-1.47-2.14q-35.32,8.07-70.51,16.67c-17.09,4.17-34.19,8.3-51.42,11.9q-21.74,4.55-43.63,8.27c-.19,0,.75,2.27,1.48,2.14Z"/><path class="cls-6" d="M525.72,900.3q31.88-9.46,64.51-16.11c10.56-2.14,21.18-4,31.77-6q17.47-3.37,34.7-7.84t34.19-10a1,1,0,0,0,.63-1.41c-.35-.61-1.15-.55-1.71-.36a562.13,562.13,0,0,1-65.1,17c-20,4-40,7.39-59.83,12.13q-19.93,4.75-39.59,10.62c-1.54.46-1.15,2.46.43,2Z"/><path class="cls-6" d="M530.2,921.68q33.9-5.79,67.43-13.5c20.51-4.75,40.91-9.94,61.4-14.79q18.5-4.38,37-8.61c1.3-.3,1.65-2,0-1.62q-35.24,8.05-70.34,16.63c-17.11,4.18-34.21,8.31-51.45,11.91q-21.64,4.51-43.46,8.23c-.52.09-1.34.45-1.47,1s.37.8.88.71Z"/><text class="cls-13" transform="matrix(0.97, -0.24, 0.24, 0.97, 484.86, 840.81)">1<tspan x="0" y="25.14">2</tspan><tspan x="0" y="50.28">3</tspan><tspan x="0" y="75.42">4</tspan><tspan x="0" y="100.56">5</tspan></text><path class="cls-14" d="M678.78,153a83,83,0,0,1-32.31,66.16.31.31,0,0,0-.11.08,23.43,23.43,0,0,0-2,1.47,32.19,32.19,0,0,0-12,25.26l.09,18-78,.37-.11-22.31a32.17,32.17,0,0,0-10.67-23.82h0c-.63-.58-1.29-1.12-2-1.65l-.1-.08A83.09,83.09,0,1,1,678.78,153Z"/><path class="cls-15" d="M569.22,242l.11,22.31-14.83.07-.11-22.31a32.17,32.17,0,0,0-10.67-23.82h0c-.63-.58-1.29-1.12-2-1.65l-.1-.08A83.09,83.09,0,0,1,595.28,70.33c2.5,0,5,.1,7.42.3a83.09,83.09,0,0,0-46.26,145.8l.1.08c.7.53,1.36,1.07,2,1.65h0A32.21,32.21,0,0,1,569.22,242Z"/><path class="cls-16" d="M590.88,270.81c2-73.3-4.13-92.54-11.21-93.86-6.43-1.2-16.84,11.8-14.2,18.44,4.91,12.38,57.65,9.09,61-3.93,1.87-7.19-10.76-19.44-17.56-17.34-7.28,2.24-11.89,22.15-1.9,96.25"/><path class="cls-17" d="M554.63,264.18h78a0,0,0,0,1,0,0v50.16a6,6,0,0,1-6,6H560.35a5.72,5.72,0,0,1-5.72-5.72V264.18A0,0,0,0,1,554.63,264.18Z" transform="translate(-1.38 2.82) rotate(-0.27)"/><rect class="cls-18" x="551.03" y="270.8" width="85.05" height="7.87" rx="1.6" transform="translate(-1.3 2.82) rotate(-0.27)"/><rect class="cls-18" x="551.09" y="283.44" width="85.05" height="7.87" rx="1.6" transform="translate(-1.36 2.82) rotate(-0.27)"/><rect class="cls-18" x="551.15" y="296.08" width="85.05" height="7.87" rx="1.6" transform="translate(-1.42 2.82) rotate(-0.27)"/><path class="cls-19" d="M568.43,270.92l0,7.86-15.84.07a1.58,1.58,0,0,1-1.6-1.56l0-4.72a1.59,1.59,0,0,1,1.58-1.58Z"/><path class="cls-19" d="M568.49,283.56l0,7.86-15.84.08a1.59,1.59,0,0,1-1.6-1.57l0-4.72a1.57,1.57,0,0,1,1.58-1.57Z"/><path class="cls-19" d="M568.55,296.2l0,7.87-15.84.07a1.58,1.58,0,0,1-1.6-1.56l0-4.72a1.58,1.58,0,0,1,1.58-1.58Z"/><rect class="cls-14" x="591.19" y="6.46" width="9.77" height="53.8"/><rect class="cls-14" x="676.59" y="40.49" width="9.77" height="53.8" transform="translate(247.26 -462.14) rotate(45)"/><rect class="cls-14" x="499.66" y="43.43" width="9.77" height="53.8" transform="translate(911.04 -236.7) rotate(135)"/><rect class="cls-14" x="709.93" y="120" width="9.77" height="53.8" transform="translate(861.71 -567.91) rotate(90)"/><rect class="cls-14" x="472.76" y="120" width="9.77" height="53.8" transform="translate(624.54 -330.74) rotate(90)"/><path class="cls-20" d="M732.17,900.63a18.76,18.76,0,0,0-3.65,2,4.66,4.66,0,0,1-3.32.86c-.57-.13-1.51-.57-1.63-1.25s.67-1.39,2.23-2.87l.63-.58c.83-.77,2.91-2.72,2.71-5a3.91,3.91,0,0,0-2.25-3.27,3.87,3.87,0,0,0-2.61,0,5.66,5.66,0,0,0-2.09,1.38,11.19,11.19,0,0,0-2.84,3.91,8.79,8.79,0,0,0-.88,4,8,8,0,0,0,.95,3.5,6.43,6.43,0,0,0,5,3.46,8.64,8.64,0,0,0,3.25-.11,9.66,9.66,0,0,0,4.83-2.87c1.3-1.26,1.29-1.82,1.24-2.09a1.53,1.53,0,0,0-1.07-1.08A1,1,0,0,0,732.17,900.63Zm-10.37-1.22c-.57-.35,0-2.85,1.43-4.33.46-.46,1.39-1.26,1.83-1s.1,1.74.06,1.85a4.3,4.3,0,0,1-1,1.71C723.72,898.18,722.31,899.71,721.8,899.41Z"/><rect class="cls-20" x="718.63" y="882.99" width="2.29" height="6.65" rx="1.12" transform="translate(-336.01 451.62) rotate(-28.54)"/><rect class="cls-20" x="723.65" y="881.5" width="2.29" height="6.65" rx="1.12" transform="translate(22.75 -18.16) rotate(1.46)"/><rect class="cls-20" x="714.89" y="886.27" width="2.29" height="6.65" rx="1.12" transform="translate(1848.55 743.07) rotate(121.46)"/><rect class="cls-20" x="713.42" y="890.96" width="2.29" height="6.65" rx="1.12" transform="translate(1650.89 235.78) rotate(93.51)"/><rect class="cls-20" x="728.39" y="882.82" width="2.29" height="6.65" rx="1.12" transform="translate(529.14 -244.04) rotate(29.41)"/><path class="cls-2" d="M357.48,988.86a3.48,3.48,0,0,1-.74-2.11h0a6,6,0,0,1,1.3-3.5h0a9.13,9.13,0,0,1,2.77-2.55h0a4.28,4.28,0,0,1,2-.65h0a2.56,2.56,0,0,1,.39,0h0a3.62,3.62,0,0,1,2.24,1.12h0a3.74,3.74,0,0,1,.27.31h0c.06-.67.13-1.51.21-2.38h0c.17-2,.34-4.32.33-5h0c0-.06,0-.1,0-.12h0a5,5,0,0,1-.18-1.14h0a1.35,1.35,0,0,1,.15-.69h0a.85.85,0,0,1,.73-.42h0a1.71,1.71,0,0,1,1.72,1.69h0a2,2,0,0,1-.09.58h0a.64.64,0,0,0,0,.07h0c0,.06,0,.15,0,.25h0c0,.22-.07.52-.11.87h0c-.08.71-.17,1.65-.25,2.69h0c-.16,1.9-.31,4.11-.36,5.75h0a2.17,2.17,0,0,1,.57.26h0a1.06,1.06,0,0,1,.4.58h0a2.09,2.09,0,0,1,.08.48h0a1.09,1.09,0,0,1-.22.68h0a1.12,1.12,0,0,1-.49.37h0c-.21.1-.41.16-.62.24h0a8.51,8.51,0,0,1,.12,1.14h0a2.78,2.78,0,0,1-.06.64h0a1.07,1.07,0,0,1-.32.62h0a.84.84,0,0,1-.55.22h-.11a1.77,1.77,0,0,1-.86-.3h0a1.2,1.2,0,0,1-.46-.61h0a1.82,1.82,0,0,1-.08-.29h0c-.37.23-.85.53-1.41.83h0a9.68,9.68,0,0,1-4.09,1.33h0a2.71,2.71,0,0,1-2.22-1Zm2.89-4.94A5.2,5.2,0,0,0,359,986.8h0a.7.7,0,0,0,.18.54h0a.82.82,0,0,0,.67.24h0a5.63,5.63,0,0,0,2.37-.86h0c.84-.46,1.73-1,2.58-1.57h0c0-.18-.1-.41-.17-.67h0a5.41,5.41,0,0,0-.79-1.7h0a1.34,1.34,0,0,0-.75-.51h-.23a4.18,4.18,0,0,0-2.5,1.66Zm10.8,3.44a9.88,9.88,0,0,1-1.28-3h0a25.36,25.36,0,0,1-.72-4.89h0a1.21,1.21,0,0,1,0-.19h0a1.36,1.36,0,0,1,.24-.84h0a1,1,0,0,1,.73-.37h0l.19,0h0a1.3,1.3,0,0,1,1,.63h0a1.6,1.6,0,0,1,.19.74h0V980h0a21,21,0,0,0,.35,3.83h0a5.08,5.08,0,0,0,.83,2.11h0a.62.62,0,0,0,.5.29h0a.74.74,0,0,0,.33-.09h0a2.42,2.42,0,0,0,1-1.17h0a8,8,0,0,0,.56-1.91h0a17.76,17.76,0,0,0,.19-3h0V980h0a1.51,1.51,0,0,1,.17-.78h0a1.12,1.12,0,0,1,1-.53h.08a1.07,1.07,0,0,1,.71.29h0a1.69,1.69,0,0,1,.33.49h0a2.44,2.44,0,0,1,.15.62h0v.1c0,.28-.1,1.48-.31,2.85h0a12.44,12.44,0,0,1-1.26,4.15h0a2.94,2.94,0,0,1-2,1.58h0a2.71,2.71,0,0,1-.4,0h0a3.05,3.05,0,0,1-2.51-1.48Zm9.63,2.14h-.2a1.36,1.36,0,0,1-.93-.53h0a1.06,1.06,0,0,1-.2-.49h0l-.13,0h0a1.15,1.15,0,0,1-.7-.53h0v0l-.05-.15h0v-.07h0s0-.1,0-.16h0c0-.12,0-.29,0-.5h0c0-.42,0-1,0-1.64h0a43.15,43.15,0,0,1,.16-4.51h0a1.46,1.46,0,0,1-.36-.78h0a.28.28,0,0,1,0-.09h0a1.17,1.17,0,0,1,.33-.76h0a2,2,0,0,1,.39-.33h0c0-.06,0-.14.05-.23h0c.07-.29.15-.69.23-1.15h0a18.35,18.35,0,0,0,.31-3.06h0a.76.76,0,0,0,0-.15h0a1.79,1.79,0,0,0-.09-.42h0a3,3,0,0,1-.14-.75h0a1.13,1.13,0,0,1,.23-.72h0a1.2,1.2,0,0,1,.78-.39h.1a1,1,0,0,1,.65.25h0a1.7,1.7,0,0,1,.42.53h0a3.46,3.46,0,0,1,.4,1.57h0v.17h0a8.43,8.43,0,0,1-.21,1.92h0c-.1.53-.24,1.11-.38,1.94h0a9.53,9.53,0,0,1,2.68.37h0a4.39,4.39,0,0,1,2.85,2.23h0a1.83,1.83,0,0,1,.19.82h0a4,4,0,0,1-.64,2h0a13.52,13.52,0,0,1-1.42,1.89h0a37,37,0,0,1-2.88,2.82h0l-.31.28h0a2,2,0,0,0-.21.27h0a1,1,0,0,1-.34.36h0a.85.85,0,0,1-.43.12h0Zm-.13-5.62c0,1.16.1,2.1.17,2.72h0l.79-.66h0a15.5,15.5,0,0,0,2.41-2.52h0a2.84,2.84,0,0,0,.64-1.46h0a.88.88,0,0,0-.07-.3h0a1.94,1.94,0,0,0-1.14-.72h0a6.93,6.93,0,0,0-2.06-.28h0l-.44,0h0c0,.16-.07.36-.1.6h0a17.42,17.42,0,0,0-.2,2.11h0v.49Zm8.44,6.15a1.52,1.52,0,0,1-.83-.29h0a.9.9,0,0,1-.36-.56h0a3.55,3.55,0,0,1-.13-.65h0c-.06-.5-.08-1.15-.09-1.91h0c0-2.92.24-7.44.41-10.06h0c.08-1.33.14-2.47.19-3.36h0a9.49,9.49,0,0,1,.24-1.92h0a.9.9,0,0,1,.22-.4h0a1.28,1.28,0,0,1,.83-.36h0a1.49,1.49,0,0,1,1,.52h0a1.19,1.19,0,0,1,.28.46h0a2.12,2.12,0,0,1,.08.57h0a22.91,22.91,0,0,1-.22,2.32h0c-.14,1.17-.33,2.83-.54,5.24h0c-.17,1.88-.25,3.8-.23,5.46h0a27.8,27.8,0,0,0,.15,2.83h0c0,.11,0,.24,0,.39h0a3.64,3.64,0,0,1-.06.71h0a1.34,1.34,0,0,1-.36.75h0a.94.94,0,0,1-.62.27h0Zm3.74-1.64.22-.47-.22.47a3.45,3.45,0,0,1-1.42-1.46h0a5.29,5.29,0,0,1-.64-2.42h0a5.27,5.27,0,0,1,.38-2h0a11.53,11.53,0,0,1,2-3.4h0a3.51,3.51,0,0,1,2.2-1.25h.2a3.42,3.42,0,0,1,2.13.79h0a4.54,4.54,0,0,1,1.63,2.9h0a5.5,5.5,0,0,1,.09,1h0a6,6,0,0,1-1.91,4.39h0a5.73,5.73,0,0,1-3.59,1.67h0a2.42,2.42,0,0,1-1-.21Zm2.9-8.15-.16.07h0a2.51,2.51,0,0,0-.65.41h0a6.39,6.39,0,0,0-1.76,3h0a2,2,0,0,0-.09.69h0a2.89,2.89,0,0,0,.26,1.21h0a1.09,1.09,0,0,0,.6.63h0a.5.5,0,0,0,.19,0h0a2.64,2.64,0,0,0,1.41-.67h0a4.24,4.24,0,0,0,1.06-1.24h0a4.89,4.89,0,0,0,.57-2.13h0a2.79,2.79,0,0,0-.3-1.25h0a1.54,1.54,0,0,0-.42-.63h0a1.17,1.17,0,0,0-.42-.2h0l-.24,0h0Zm-.13-.12,0-.39,0,.39Zm-47.18,3.81a8.76,8.76,0,0,1,1.52-1.8,10,10,0,0,1,4.16-2l.73.06a3.16,3.16,0,0,1,1.64.76,1.85,1.85,0,0,1,.39,1.87,3.19,3.19,0,0,1-1.54,2.06,7.4,7.4,0,0,1-2.78,1c-1,.15-1.56.33-1.66.54s0,.48.38.79a6,6,0,0,0,2.56.84,11.36,11.36,0,0,0,3.36.21,12.43,12.43,0,0,0,2.19-.45c.57-.19,1.19.41,1.51.37s.54.14.68.57c-.65.71-1.5.5-2.2.78a11.83,11.83,0,0,1-2.57.69,14.83,14.83,0,0,1-3.65.08l-.86-.11a10.48,10.48,0,0,1-3-1,3.82,3.82,0,0,1-1.13-1.09,3.61,3.61,0,0,1-.43-1.7A6.48,6.48,0,0,1,348.44,983.93Zm2.32.75a8,8,0,0,0,2.72-.88c.48-.33.71-.65.69-1s-.38-.36-1.08-.1a3.53,3.53,0,0,0-1.47.86A9.35,9.35,0,0,0,350.76,984.68Z"/><path class="cls-2" d="M395.13,997.12a10.41,10.41,0,0,1-5.26-2.51h0a.84.84,0,0,1-.29-.6h0a.76.76,0,0,1,0-.15h0a1.17,1.17,0,0,1,.34-.66h0a1.27,1.27,0,0,1,.69-.35h.13a1.06,1.06,0,0,1,.68.27h0a6.62,6.62,0,0,0,1.45.95h0a12.09,12.09,0,0,0,1.69.67h0a11.79,11.79,0,0,0,2.64.47h0a8.62,8.62,0,0,0,.88,0h0a9.79,9.79,0,0,0,1.78-.19h0a11.07,11.07,0,0,0,2.26-.72h0a5.14,5.14,0,0,0,2.31-2.62h0a14,14,0,0,0,.66-4.33h0c-.15.2-.3.4-.47.59h0a5.28,5.28,0,0,1-1,.87h0a3.92,3.92,0,0,1-1.48.61h0l-.27,0h0a1.57,1.57,0,0,1-.7-.14h0a2.64,2.64,0,0,1-.73-.51h0a3.56,3.56,0,0,1-1-2.35h0c0-.08,0-.17,0-.25h0a6.27,6.27,0,0,1,.47-2.45h0a15.53,15.53,0,0,1,1.27-2.47h0c.12-.19.34-.49.67-.92h0a8.82,8.82,0,0,1,1.19-1.28h0a6.64,6.64,0,0,1,1.49-1.06h0a2.33,2.33,0,0,1,1.06-.28h0a1.88,1.88,0,0,1,.58.07h0a.73.73,0,0,1,.32.15h0a.41.41,0,0,1,.16.29h0s0,0,0,.06h0a1,1,0,0,1-.26.51h.08l.35,0h0c.62.09,1,.45,1,1h0v.09h0c-.08,1.45-.15,2.91-.22,4.36h0c-.08,1.46-.23,2.91-.38,4.36h0a16.54,16.54,0,0,1-.74,3.65h0a6.43,6.43,0,0,1-.73,1.55h0a6.69,6.69,0,0,1-2,1.94h0a9.94,9.94,0,0,1-2.67,1.15h0a12,12,0,0,1-3,.43h0a15.31,15.31,0,0,1-3-.25Zm10.1-17.24a4.47,4.47,0,0,0-.46.5h0l-.5.62h0a6.79,6.79,0,0,0-.81,1.22h0l-.63,1.29h0a6.41,6.41,0,0,0-.79,2.71h0v0h0a2.68,2.68,0,0,0,.1.76h0c.05.16.11.21.15.23h0l0,0h0l.13-.11h0a4,4,0,0,0,.4-.51h0a13.43,13.43,0,0,0,1.15-2.23h0a18.37,18.37,0,0,0,.83-2.36h0c.22-.79.44-1.58.67-2.37h0l-.28.24Z"/><path class="cls-2" d="M410.19,989.17a5.42,5.42,0,0,1-1.76-1.6h0a.83.83,0,0,1-.15-.45h0a1,1,0,0,1,.06-.33h0a1.49,1.49,0,0,1,.45-.63h0a1.37,1.37,0,0,1,.7-.3h.09a.74.74,0,0,1,.62.32h0a3.79,3.79,0,0,0,1.06,1h0a.82.82,0,0,0,.45.15h0a.68.68,0,0,0,.5-.27h0s0,0,0,0h0l0-.11h0a1.5,1.5,0,0,0,.07-.51h0v0h0a2.08,2.08,0,0,0-.19-.79h0a2.65,2.65,0,0,0-.78-1h0a8.22,8.22,0,0,0-.67-.49h0a3.25,3.25,0,0,1-.68-.6h0a2.51,2.51,0,0,1-.6-1.59h0a3,3,0,0,1,0-.51h0a3.28,3.28,0,0,1,1.29-2.2h0A5.66,5.66,0,0,1,413,978h0l.18,0h0a.68.68,0,0,1,.52.23h0a.79.79,0,0,1,.22.52h0a.88.88,0,0,1,0,.16h0a1.34,1.34,0,0,1-.84,1h0a3.4,3.4,0,0,0-.63.39h0a2.55,2.55,0,0,0-.6.58h0a1.18,1.18,0,0,0-.26.63h0v.05h0a.69.69,0,0,0,.31.51h0a8.34,8.34,0,0,0,.75.58h0a3.92,3.92,0,0,1,.75.67h0a8.66,8.66,0,0,1,.76,1.08h0a3,3,0,0,1,.45,1.28h0a3.37,3.37,0,0,1,0,.44h0a3.79,3.79,0,0,1-.38,1.75h0a2.72,2.72,0,0,1-1.68,1.46h0a3.16,3.16,0,0,1-.94.17h0a2.78,2.78,0,0,1-1.44-.38Zm2.17-2.12v0Zm-.06-.06,0,0,0,0Z"/><path class="cls-2" d="M407.8,974.17c.17-.25.35-.49.71-.45a.55.55,0,0,1,.5.58,1.16,1.16,0,0,1-.2.5l-.93,1.46c-.17.25-.34.49-.7.45a.55.55,0,0,1-.51-.58,1.07,1.07,0,0,1,.21-.5Z"/><path class="cls-2" d="M404.47,974a.74.74,0,0,1,.29-.79.54.54,0,0,1,.75.17,1.08,1.08,0,0,1,.14.52l.14,1.72a.74.74,0,0,1-.29.79.56.56,0,0,1-.76-.16,1.17,1.17,0,0,1-.13-.53Z"/><path class="cls-2" d="M401.72,974.93a.74.74,0,0,1,0-.84.54.54,0,0,1,.75-.15,1,1,0,0,1,.33.43l.8,1.53a.76.76,0,0,1,0,.84.54.54,0,0,1-.75.15,1.12,1.12,0,0,1-.33-.43Z"/><path class="cls-2" d="M401.68,977.15c.25.15.5.32.48.68a.55.55,0,0,1-.56.54,1.2,1.2,0,0,1-.51-.18l-1.49-.87c-.26-.15-.5-.32-.48-.68a.54.54,0,0,1,.56-.53,1,1,0,0,1,.51.18Z"/><path class="cls-2" d="M410.1,976a.74.74,0,0,1,.83-.12.54.54,0,0,1,.22.73,1,1,0,0,1-.38.38l-1.44,1a.73.73,0,0,1-.82.12.55.55,0,0,1-.23-.74,1.16,1.16,0,0,1,.39-.37Z"/></svg>