<svg xmlns="http://www.w3.org/2000/svg" x="0px" y="0px" viewBox="0 0 30.8 30.8" style="vertical-align: middle; max-width: 100%;" width="100%"><rect x="-2.7" y="-1.5" width="36.5" height="34.2" fill="rgb(255,255,255)"></rect><g>
	<polygon points="30.8,30.8 28.8,30.8 28.8,17.4 17.4,17.4 17.4,28.8 22,28.8 22,23.6 24,23.6 24,30.8    15.4,30.8 15.4,15.4 30.8,15.4" fill="rgb(41,170,145)"></polygon>
</g><g>
	<g>
		<polygon points="15.4,15.4 0,15.4 0,6.8 7.2,6.8 7.2,8.8 2,8.8 2,13.4 13.4,13.4 13.4,2 0,2 0,0 15.4,0" fill="rgb(255,255,255)"></polygon>
	</g>
	<g>
		<polygon points="15.4,15.4 0,15.4 0,6.8 7.2,6.8 7.2,8.8 2,8.8 2,13.4 13.4,13.4 13.4,2 0,2 0,0 15.4,0" fill="rgb(41,170,145)"></polygon>
	</g>
</g></svg>